<mxfile host="app.diagrams.net" modified="2023-11-15T16:57:10.981Z" agent="Mozilla/5.0 (Windows NT 10.0; Win64; x64) AppleWebKit/537.36 (KHTML, like Gecko) Chrome/119.0.0.0 Safari/537.36" etag="dwmhSX-1UHoTlBP5M7da" version="22.1.1" type="device">
  <diagram name="Trang-1" id="BKVp_bpLa-KC3Jg0dzgI">
    <mxGraphModel dx="1720" dy="755" grid="1" gridSize="10" guides="1" tooltips="1" connect="1" arrows="1" fold="1" page="1" pageScale="1" pageWidth="827" pageHeight="1169" math="0" shadow="0">
      <root>
        <mxCell id="0" />
        <mxCell id="1" parent="0" />
        <mxCell id="BxI0fKkpAJ2Ff9eFSSV0-22" value="" style="rounded=0;whiteSpace=wrap;html=1;" vertex="1" parent="1">
          <mxGeometry x="40" y="30" width="1170" height="830" as="geometry" />
        </mxCell>
        <mxCell id="xMsL1z8N9FYoSVqhSbJW-4" value="View" style="rounded=0;whiteSpace=wrap;html=1;" parent="1" vertex="1">
          <mxGeometry x="320" y="70" width="100" height="40" as="geometry" />
        </mxCell>
        <mxCell id="xMsL1z8N9FYoSVqhSbJW-5" value="Student" style="shape=umlActor;verticalLabelPosition=bottom;verticalAlign=top;html=1;outlineConnect=0;" parent="1" vertex="1">
          <mxGeometry x="170" y="50" width="30" height="60" as="geometry" />
        </mxCell>
        <mxCell id="xMsL1z8N9FYoSVqhSbJW-6" value=":RegisterController" style="rounded=0;whiteSpace=wrap;html=1;" parent="1" vertex="1">
          <mxGeometry x="494" y="70" width="100" height="40" as="geometry" />
        </mxCell>
        <mxCell id="xMsL1z8N9FYoSVqhSbJW-7" value=":TeamService" style="rounded=0;whiteSpace=wrap;html=1;" parent="1" vertex="1">
          <mxGeometry x="650" y="70" width="100" height="40" as="geometry" />
        </mxCell>
        <mxCell id="xMsL1z8N9FYoSVqhSbJW-8" value=":TeamRepository" style="rounded=0;whiteSpace=wrap;html=1;" parent="1" vertex="1">
          <mxGeometry x="805" y="70" width="110" height="40" as="geometry" />
        </mxCell>
        <mxCell id="xMsL1z8N9FYoSVqhSbJW-9" value="Database" style="rounded=0;whiteSpace=wrap;html=1;" parent="1" vertex="1">
          <mxGeometry x="980" y="70" width="100" height="40" as="geometry" />
        </mxCell>
        <mxCell id="xMsL1z8N9FYoSVqhSbJW-10" value="" style="endArrow=none;dashed=1;html=1;rounded=0;" parent="1" edge="1">
          <mxGeometry width="50" height="50" relative="1" as="geometry">
            <mxPoint x="180" y="770" as="sourcePoint" />
            <mxPoint x="180" y="110" as="targetPoint" />
          </mxGeometry>
        </mxCell>
        <mxCell id="xMsL1z8N9FYoSVqhSbJW-11" value="" style="endArrow=none;dashed=1;html=1;rounded=0;" parent="1" source="xMsL1z8N9FYoSVqhSbJW-20" edge="1">
          <mxGeometry width="50" height="50" relative="1" as="geometry">
            <mxPoint x="369.64" y="620" as="sourcePoint" />
            <mxPoint x="370.35" y="110" as="targetPoint" />
          </mxGeometry>
        </mxCell>
        <mxCell id="xMsL1z8N9FYoSVqhSbJW-12" value="" style="endArrow=none;dashed=1;html=1;rounded=0;" parent="1" source="xMsL1z8N9FYoSVqhSbJW-22" target="xMsL1z8N9FYoSVqhSbJW-6" edge="1">
          <mxGeometry width="50" height="50" relative="1" as="geometry">
            <mxPoint x="543.29" y="620" as="sourcePoint" />
            <mxPoint x="543.29" y="110" as="targetPoint" />
          </mxGeometry>
        </mxCell>
        <mxCell id="xMsL1z8N9FYoSVqhSbJW-13" value="" style="endArrow=none;dashed=1;html=1;rounded=0;" parent="1" source="xMsL1z8N9FYoSVqhSbJW-26" target="xMsL1z8N9FYoSVqhSbJW-7" edge="1">
          <mxGeometry width="50" height="50" relative="1" as="geometry">
            <mxPoint x="700" y="620" as="sourcePoint" />
            <mxPoint x="700" y="110" as="targetPoint" />
          </mxGeometry>
        </mxCell>
        <mxCell id="xMsL1z8N9FYoSVqhSbJW-14" value="" style="endArrow=none;dashed=1;html=1;rounded=0;" parent="1" source="xMsL1z8N9FYoSVqhSbJW-28" target="xMsL1z8N9FYoSVqhSbJW-8" edge="1">
          <mxGeometry width="50" height="50" relative="1" as="geometry">
            <mxPoint x="859.29" y="620" as="sourcePoint" />
            <mxPoint x="859.29" y="110" as="targetPoint" />
          </mxGeometry>
        </mxCell>
        <mxCell id="xMsL1z8N9FYoSVqhSbJW-15" value="" style="endArrow=none;dashed=1;html=1;rounded=0;" parent="1" source="xMsL1z8N9FYoSVqhSbJW-30" edge="1">
          <mxGeometry width="50" height="50" relative="1" as="geometry">
            <mxPoint x="1029.29" y="620" as="sourcePoint" />
            <mxPoint x="1029.29" y="110" as="targetPoint" />
          </mxGeometry>
        </mxCell>
        <mxCell id="xMsL1z8N9FYoSVqhSbJW-16" value="" style="endArrow=classic;html=1;rounded=0;" parent="1" target="xMsL1z8N9FYoSVqhSbJW-20" edge="1">
          <mxGeometry width="50" height="50" relative="1" as="geometry">
            <mxPoint x="180" y="150" as="sourcePoint" />
            <mxPoint x="360" y="150" as="targetPoint" />
          </mxGeometry>
        </mxCell>
        <mxCell id="xMsL1z8N9FYoSVqhSbJW-17" value="1.Click button &quot;Chi tiáº¿t&quot;" style="text;html=1;align=center;verticalAlign=middle;resizable=0;points=[];autosize=1;strokeColor=none;fillColor=none;" parent="1" vertex="1">
          <mxGeometry x="190" y="128" width="150" height="30" as="geometry" />
        </mxCell>
        <mxCell id="xMsL1z8N9FYoSVqhSbJW-19" value="" style="endArrow=none;dashed=1;html=1;rounded=0;" parent="1" target="xMsL1z8N9FYoSVqhSbJW-20" edge="1">
          <mxGeometry width="50" height="50" relative="1" as="geometry">
            <mxPoint x="370" y="780" as="sourcePoint" />
            <mxPoint x="370.35" y="110" as="targetPoint" />
          </mxGeometry>
        </mxCell>
        <mxCell id="xMsL1z8N9FYoSVqhSbJW-20" value="" style="html=1;points=[[0,0,0,0,5],[0,1,0,0,-5],[1,0,0,0,5],[1,1,0,0,-5]];perimeter=orthogonalPerimeter;outlineConnect=0;targetShapes=umlLifeline;portConstraint=eastwest;newEdgeStyle={&quot;curved&quot;:0,&quot;rounded&quot;:0};" parent="1" vertex="1">
          <mxGeometry x="365" y="128" width="10" height="552" as="geometry" />
        </mxCell>
        <mxCell id="xMsL1z8N9FYoSVqhSbJW-21" value="" style="endArrow=none;dashed=1;html=1;rounded=0;" parent="1" edge="1">
          <mxGeometry width="50" height="50" relative="1" as="geometry">
            <mxPoint x="544" y="760" as="sourcePoint" />
            <mxPoint x="543.71" y="660" as="targetPoint" />
          </mxGeometry>
        </mxCell>
        <mxCell id="xMsL1z8N9FYoSVqhSbJW-22" value="" style="html=1;points=[[0,0,0,0,5],[0,1,0,0,-5],[1,0,0,0,5],[1,1,0,0,-5]];perimeter=orthogonalPerimeter;outlineConnect=0;targetShapes=umlLifeline;portConstraint=eastwest;newEdgeStyle={&quot;curved&quot;:0,&quot;rounded&quot;:0};" parent="1" vertex="1">
          <mxGeometry x="539" y="180" width="10" height="490" as="geometry" />
        </mxCell>
        <mxCell id="xMsL1z8N9FYoSVqhSbJW-23" value="" style="endArrow=classic;html=1;rounded=0;" parent="1" edge="1">
          <mxGeometry width="50" height="50" relative="1" as="geometry">
            <mxPoint x="374" y="210" as="sourcePoint" />
            <mxPoint x="539" y="210" as="targetPoint" />
          </mxGeometry>
        </mxCell>
        <mxCell id="xMsL1z8N9FYoSVqhSbJW-24" value="3. registerTeacher()" style="text;html=1;align=center;verticalAlign=middle;resizable=0;points=[];autosize=1;strokeColor=none;fillColor=none;" parent="1" vertex="1">
          <mxGeometry x="389" y="180" width="130" height="30" as="geometry" />
        </mxCell>
        <mxCell id="xMsL1z8N9FYoSVqhSbJW-25" value="" style="endArrow=none;dashed=1;html=1;rounded=0;" parent="1" target="xMsL1z8N9FYoSVqhSbJW-26" edge="1">
          <mxGeometry width="50" height="50" relative="1" as="geometry">
            <mxPoint x="700" y="770" as="sourcePoint" />
            <mxPoint x="700" y="110" as="targetPoint" />
          </mxGeometry>
        </mxCell>
        <mxCell id="xMsL1z8N9FYoSVqhSbJW-26" value="" style="html=1;points=[[0,0,0,0,5],[0,1,0,0,-5],[1,0,0,0,5],[1,1,0,0,-5]];perimeter=orthogonalPerimeter;outlineConnect=0;targetShapes=umlLifeline;portConstraint=eastwest;newEdgeStyle={&quot;curved&quot;:0,&quot;rounded&quot;:0};" parent="1" vertex="1">
          <mxGeometry x="695" y="300" width="10" height="350" as="geometry" />
        </mxCell>
        <mxCell id="xMsL1z8N9FYoSVqhSbJW-27" value="" style="endArrow=none;dashed=1;html=1;rounded=0;" parent="1" target="xMsL1z8N9FYoSVqhSbJW-28" edge="1" source="BxI0fKkpAJ2Ff9eFSSV0-19">
          <mxGeometry width="50" height="50" relative="1" as="geometry">
            <mxPoint x="860" y="820" as="sourcePoint" />
            <mxPoint x="860" y="110" as="targetPoint" />
          </mxGeometry>
        </mxCell>
        <mxCell id="xMsL1z8N9FYoSVqhSbJW-28" value="" style="html=1;points=[[0,0,0,0,5],[0,1,0,0,-5],[1,0,0,0,5],[1,1,0,0,-5]];perimeter=orthogonalPerimeter;outlineConnect=0;targetShapes=umlLifeline;portConstraint=eastwest;newEdgeStyle={&quot;curved&quot;:0,&quot;rounded&quot;:0};" parent="1" vertex="1">
          <mxGeometry x="855" y="330" width="10" height="120" as="geometry" />
        </mxCell>
        <mxCell id="xMsL1z8N9FYoSVqhSbJW-29" value="" style="endArrow=none;dashed=1;html=1;rounded=0;" parent="1" target="xMsL1z8N9FYoSVqhSbJW-30" edge="1" source="BxI0fKkpAJ2Ff9eFSSV0-17">
          <mxGeometry width="50" height="50" relative="1" as="geometry">
            <mxPoint x="1030" y="820" as="sourcePoint" />
            <mxPoint x="1029.29" y="110" as="targetPoint" />
          </mxGeometry>
        </mxCell>
        <mxCell id="xMsL1z8N9FYoSVqhSbJW-30" value="" style="html=1;points=[[0,0,0,0,5],[0,1,0,0,-5],[1,0,0,0,5],[1,1,0,0,-5]];perimeter=orthogonalPerimeter;outlineConnect=0;targetShapes=umlLifeline;portConstraint=eastwest;newEdgeStyle={&quot;curved&quot;:0,&quot;rounded&quot;:0};" parent="1" vertex="1">
          <mxGeometry x="1025" y="370" width="10" height="70" as="geometry" />
        </mxCell>
        <mxCell id="xMsL1z8N9FYoSVqhSbJW-31" value="" style="endArrow=classic;html=1;rounded=0;" parent="1" edge="1">
          <mxGeometry width="50" height="50" relative="1" as="geometry">
            <mxPoint x="550" y="320" as="sourcePoint" />
            <mxPoint x="695" y="320" as="targetPoint" />
          </mxGeometry>
        </mxCell>
        <mxCell id="xMsL1z8N9FYoSVqhSbJW-32" value="5. findById()" style="text;html=1;align=center;verticalAlign=middle;resizable=0;points=[];autosize=1;strokeColor=none;fillColor=none;" parent="1" vertex="1">
          <mxGeometry x="575" y="290" width="90" height="30" as="geometry" />
        </mxCell>
        <mxCell id="xMsL1z8N9FYoSVqhSbJW-33" value="" style="endArrow=classic;html=1;rounded=0;" parent="1" edge="1">
          <mxGeometry width="50" height="50" relative="1" as="geometry">
            <mxPoint x="705" y="360" as="sourcePoint" />
            <mxPoint x="855" y="360" as="targetPoint" />
          </mxGeometry>
        </mxCell>
        <mxCell id="xMsL1z8N9FYoSVqhSbJW-34" value="6. findById()" style="text;html=1;align=center;verticalAlign=middle;resizable=0;points=[];autosize=1;strokeColor=none;fillColor=none;" parent="1" vertex="1">
          <mxGeometry x="730" y="330" width="90" height="30" as="geometry" />
        </mxCell>
        <mxCell id="xMsL1z8N9FYoSVqhSbJW-35" value="" style="endArrow=classic;html=1;rounded=0;" parent="1" edge="1">
          <mxGeometry width="50" height="50" relative="1" as="geometry">
            <mxPoint x="865" y="390" as="sourcePoint" />
            <mxPoint x="1025.0000000000005" y="390" as="targetPoint" />
          </mxGeometry>
        </mxCell>
        <mxCell id="xMsL1z8N9FYoSVqhSbJW-36" value="7.execulteQuerry()" style="text;html=1;align=center;verticalAlign=middle;resizable=0;points=[];autosize=1;strokeColor=none;fillColor=none;" parent="1" vertex="1">
          <mxGeometry x="890" y="360" width="120" height="30" as="geometry" />
        </mxCell>
        <mxCell id="xMsL1z8N9FYoSVqhSbJW-40" value="4. Return null" style="html=1;verticalAlign=bottom;endArrow=open;dashed=1;endSize=8;curved=0;rounded=0;" parent="1" edge="1">
          <mxGeometry relative="1" as="geometry">
            <mxPoint x="540" y="259" as="sourcePoint" />
            <mxPoint x="375" y="259" as="targetPoint" />
          </mxGeometry>
        </mxCell>
        <mxCell id="xMsL1z8N9FYoSVqhSbJW-41" value="[not found id team]" style="text;html=1;align=center;verticalAlign=middle;resizable=0;points=[];autosize=1;strokeColor=none;fillColor=none;" parent="1" vertex="1">
          <mxGeometry x="220" y="229" width="120" height="30" as="geometry" />
        </mxCell>
        <mxCell id="xMsL1z8N9FYoSVqhSbJW-47" value="[invalid]" style="text;html=1;align=center;verticalAlign=middle;resizable=0;points=[];autosize=1;strokeColor=none;fillColor=none;" parent="1" vertex="1">
          <mxGeometry x="225" y="360" width="60" height="30" as="geometry" />
        </mxCell>
        <mxCell id="xMsL1z8N9FYoSVqhSbJW-49" value="" style="endArrow=none;dashed=1;html=1;rounded=0;" parent="1" edge="1">
          <mxGeometry width="50" height="50" relative="1" as="geometry">
            <mxPoint x="105" y="280" as="sourcePoint" />
            <mxPoint x="1105" y="280" as="targetPoint" />
          </mxGeometry>
        </mxCell>
        <mxCell id="xMsL1z8N9FYoSVqhSbJW-62" value="8. Return result" style="html=1;verticalAlign=bottom;endArrow=open;dashed=1;endSize=8;curved=0;rounded=0;" parent="1" edge="1">
          <mxGeometry relative="1" as="geometry">
            <mxPoint x="1025" y="420" as="sourcePoint" />
            <mxPoint x="865" y="420.0000000000002" as="targetPoint" />
          </mxGeometry>
        </mxCell>
        <mxCell id="xMsL1z8N9FYoSVqhSbJW-63" value="9. Return result" style="html=1;verticalAlign=bottom;endArrow=open;dashed=1;endSize=8;curved=0;rounded=0;" parent="1" edge="1">
          <mxGeometry relative="1" as="geometry">
            <mxPoint x="853.75" y="439.5" as="sourcePoint" />
            <mxPoint x="703.75" y="439.5000000000002" as="targetPoint" />
          </mxGeometry>
        </mxCell>
        <mxCell id="xMsL1z8N9FYoSVqhSbJW-64" value="10. Return result" style="html=1;verticalAlign=bottom;endArrow=open;dashed=1;endSize=8;curved=0;rounded=0;" parent="1" edge="1">
          <mxGeometry relative="1" as="geometry">
            <mxPoint x="693.75" y="469.5000000000002" as="sourcePoint" />
            <mxPoint x="546.25" y="469.5" as="targetPoint" />
          </mxGeometry>
        </mxCell>
        <mxCell id="xMsL1z8N9FYoSVqhSbJW-65" value="11. Return view&amp;nbsp;" style="html=1;verticalAlign=bottom;endArrow=open;dashed=1;endSize=8;curved=0;rounded=0;" parent="1" edge="1">
          <mxGeometry relative="1" as="geometry">
            <mxPoint x="539" y="640.0000000000002" as="sourcePoint" />
            <mxPoint x="375" y="640" as="targetPoint" />
          </mxGeometry>
        </mxCell>
        <mxCell id="xMsL1z8N9FYoSVqhSbJW-66" value="12. Display view&amp;nbsp;" style="html=1;verticalAlign=bottom;endArrow=open;dashed=1;endSize=8;curved=0;rounded=0;" parent="1" edge="1">
          <mxGeometry relative="1" as="geometry">
            <mxPoint x="365" y="660" as="sourcePoint" />
            <mxPoint x="180" y="660" as="targetPoint" />
          </mxGeometry>
        </mxCell>
        <mxCell id="xMsL1z8N9FYoSVqhSbJW-68" value="alt register teacher" style="shape=umlFrame;whiteSpace=wrap;html=1;pointerEvents=0;width=80;height=40;" parent="1" vertex="1">
          <mxGeometry x="90" y="220" width="1030" height="470" as="geometry" />
        </mxCell>
        <mxCell id="BxI0fKkpAJ2Ff9eFSSV0-2" value="" style="endArrow=classic;html=1;rounded=0;" edge="1" parent="1">
          <mxGeometry width="50" height="50" relative="1" as="geometry">
            <mxPoint x="180" y="182" as="sourcePoint" />
            <mxPoint x="365" y="182" as="targetPoint" />
          </mxGeometry>
        </mxCell>
        <mxCell id="BxI0fKkpAJ2Ff9eFSSV0-3" value="2.Click button &quot;ÄÄng kÃ½&quot;" style="text;html=1;align=center;verticalAlign=middle;resizable=0;points=[];autosize=1;strokeColor=none;fillColor=none;" vertex="1" parent="1">
          <mxGeometry x="190" y="160" width="150" height="30" as="geometry" />
        </mxCell>
        <mxCell id="BxI0fKkpAJ2Ff9eFSSV0-8" value="" style="endArrow=classic;html=1;rounded=0;" edge="1" parent="1">
          <mxGeometry width="50" height="50" relative="1" as="geometry">
            <mxPoint x="550" y="509.5" as="sourcePoint" />
            <mxPoint x="695" y="509.5" as="targetPoint" />
          </mxGeometry>
        </mxCell>
        <mxCell id="BxI0fKkpAJ2Ff9eFSSV0-9" value="11. updateTeam()" style="text;html=1;align=center;verticalAlign=middle;resizable=0;points=[];autosize=1;strokeColor=none;fillColor=none;" vertex="1" parent="1">
          <mxGeometry x="560" y="479.5" width="120" height="30" as="geometry" />
        </mxCell>
        <mxCell id="BxI0fKkpAJ2Ff9eFSSV0-10" value="" style="endArrow=classic;html=1;rounded=0;" edge="1" parent="1" source="xMsL1z8N9FYoSVqhSbJW-26">
          <mxGeometry width="50" height="50" relative="1" as="geometry">
            <mxPoint x="710" y="530" as="sourcePoint" />
            <mxPoint x="855" y="530" as="targetPoint" />
          </mxGeometry>
        </mxCell>
        <mxCell id="BxI0fKkpAJ2Ff9eFSSV0-11" value="12. updateTeam()" style="text;html=1;align=center;verticalAlign=middle;resizable=0;points=[];autosize=1;strokeColor=none;fillColor=none;" vertex="1" parent="1">
          <mxGeometry x="720" y="500" width="120" height="30" as="geometry" />
        </mxCell>
        <mxCell id="BxI0fKkpAJ2Ff9eFSSV0-12" value="" style="endArrow=classic;html=1;rounded=0;" edge="1" parent="1" target="BxI0fKkpAJ2Ff9eFSSV0-17">
          <mxGeometry width="50" height="50" relative="1" as="geometry">
            <mxPoint x="865" y="554.5" as="sourcePoint" />
            <mxPoint x="1010" y="554.5" as="targetPoint" />
          </mxGeometry>
        </mxCell>
        <mxCell id="BxI0fKkpAJ2Ff9eFSSV0-13" value="13. execulteUpdate()" style="text;html=1;align=center;verticalAlign=middle;resizable=0;points=[];autosize=1;strokeColor=none;fillColor=none;" vertex="1" parent="1">
          <mxGeometry x="880" y="524.5" width="130" height="30" as="geometry" />
        </mxCell>
        <mxCell id="BxI0fKkpAJ2Ff9eFSSV0-14" value="14. Return result" style="html=1;verticalAlign=bottom;endArrow=open;dashed=1;endSize=8;curved=0;rounded=0;" edge="1" parent="1">
          <mxGeometry relative="1" as="geometry">
            <mxPoint x="1025" y="580" as="sourcePoint" />
            <mxPoint x="865" y="580.0000000000002" as="targetPoint" />
          </mxGeometry>
        </mxCell>
        <mxCell id="BxI0fKkpAJ2Ff9eFSSV0-15" value="15. Return result" style="html=1;verticalAlign=bottom;endArrow=open;dashed=1;endSize=8;curved=0;rounded=0;" edge="1" parent="1">
          <mxGeometry relative="1" as="geometry">
            <mxPoint x="855" y="590" as="sourcePoint" />
            <mxPoint x="705" y="590.0000000000002" as="targetPoint" />
          </mxGeometry>
        </mxCell>
        <mxCell id="BxI0fKkpAJ2Ff9eFSSV0-18" value="" style="endArrow=none;dashed=1;html=1;rounded=0;" edge="1" parent="1" target="BxI0fKkpAJ2Ff9eFSSV0-17">
          <mxGeometry width="50" height="50" relative="1" as="geometry">
            <mxPoint x="1030" y="760" as="sourcePoint" />
            <mxPoint x="1030" y="440" as="targetPoint" />
          </mxGeometry>
        </mxCell>
        <mxCell id="BxI0fKkpAJ2Ff9eFSSV0-17" value="" style="html=1;points=[[0,0,0,0,5],[0,1,0,0,-5],[1,0,0,0,5],[1,1,0,0,-5]];perimeter=orthogonalPerimeter;outlineConnect=0;targetShapes=umlLifeline;portConstraint=eastwest;newEdgeStyle={&quot;curved&quot;:0,&quot;rounded&quot;:0};" vertex="1" parent="1">
          <mxGeometry x="1025" y="530" width="10" height="64.5" as="geometry" />
        </mxCell>
        <mxCell id="BxI0fKkpAJ2Ff9eFSSV0-20" value="" style="endArrow=none;dashed=1;html=1;rounded=0;" edge="1" parent="1" target="BxI0fKkpAJ2Ff9eFSSV0-19">
          <mxGeometry width="50" height="50" relative="1" as="geometry">
            <mxPoint x="860" y="760" as="sourcePoint" />
            <mxPoint x="860" y="450" as="targetPoint" />
          </mxGeometry>
        </mxCell>
        <mxCell id="BxI0fKkpAJ2Ff9eFSSV0-19" value="" style="html=1;points=[[0,0,0,0,5],[0,1,0,0,-5],[1,0,0,0,5],[1,1,0,0,-5]];perimeter=orthogonalPerimeter;outlineConnect=0;targetShapes=umlLifeline;portConstraint=eastwest;newEdgeStyle={&quot;curved&quot;:0,&quot;rounded&quot;:0};" vertex="1" parent="1">
          <mxGeometry x="855" y="520" width="10" height="90" as="geometry" />
        </mxCell>
        <mxCell id="BxI0fKkpAJ2Ff9eFSSV0-21" value="16. Return result" style="html=1;verticalAlign=bottom;endArrow=open;dashed=1;endSize=8;curved=0;rounded=0;" edge="1" parent="1">
          <mxGeometry relative="1" as="geometry">
            <mxPoint x="696.5" y="610.0000000000002" as="sourcePoint" />
            <mxPoint x="549" y="610" as="targetPoint" />
          </mxGeometry>
        </mxCell>
      </root>
    </mxGraphModel>
  </diagram>
</mxfile>
